<?xml version="1.0" encoding="utf-8"?>
<!-- Generator: Adobe Illustrator 16.0.4, SVG Export Plug-In . SVG Version: 6.00 Build 0)  -->
<!DOCTYPE svg PUBLIC "-//W3C//DTD SVG 1.1//EN" "http://www.w3.org/Graphics/SVG/1.1/DTD/svg11.dtd">
<svg version="1.1" id="Layer_1" xmlns="http://www.w3.org/2000/svg" xmlns:xlink="http://www.w3.org/1999/xlink" x="0px" y="0px"
	 width="247.947px" height="34.938px" viewBox="0 0 247.947 34.938" style="enable-background:new 0 0 247.947 34.938;"
	 xml:space="preserve">
<style type="text/css">
<![CDATA[
	.st0{fill:#231F20;}
	.st1{fill:#C1D82F;}
	.st2{fill:#949CA1;}
	.st3{fill-rule:evenodd;clip-rule:evenodd;fill:#231F20;}
]]>
</style>
<polygon class="st3" points="0.833,0.5 5.217,0.5 5.217,15.966 15.607,15.966 15.607,19.358 0.833,19.358 "/>
<path class="st3" d="M20.474,8.836c-0.513,0.534-0.839,1.249-0.968,2.154h6.306c-0.067-0.964-0.394-1.692-0.985-2.192
	c-0.579-0.498-1.293-0.755-2.165-0.755C21.726,8.043,20.994,8.315,20.474,8.836 M26.152,5.693c1.034,0.435,1.889,1.121,2.561,2.061
	c0.608,0.829,1.002,1.789,1.181,2.878c0.105,0.643,0.149,1.563,0.131,2.765H19.407c0.059,1.398,0.546,2.38,1.463,2.946
	c0.563,0.348,1.232,0.521,2.02,0.521c0.834,0,1.518-0.212,2.04-0.638c0.281-0.232,0.535-0.552,0.754-0.959h4.139
	c-0.103,0.829-0.583,1.666-1.436,2.518c-1.329,1.357-3.188,2.036-5.582,2.036c-1.971,0-3.714-0.568-5.223-1.713
	c-1.509-1.142-2.264-3.005-2.264-5.581c0-2.412,0.679-4.263,2.039-5.552c1.364-1.288,3.134-1.927,5.303-1.927
	C23.952,5.046,25.117,5.26,26.152,5.693"/>
<path class="st3" d="M34.455,14.905c0.083,0.648,0.271,1.112,0.554,1.386c0.5,0.483,1.432,0.728,2.789,0.728
	c0.794,0,1.428-0.107,1.894-0.322c0.475-0.212,0.712-0.532,0.712-0.958c0-0.411-0.188-0.72-0.57-0.936
	c-0.379-0.213-1.788-0.582-4.223-1.101c-1.758-0.393-2.998-0.883-3.719-1.473c-0.723-0.578-1.079-1.412-1.079-2.509
	c0-1.285,0.557-2.39,1.678-3.313c1.126-0.933,2.715-1.395,4.752-1.395c1.935,0,3.512,0.351,4.728,1.05
	c1.222,0.694,1.928,1.891,2.106,3.595h-4.059c-0.055-0.467-0.204-0.839-0.437-1.111c-0.446-0.496-1.207-0.74-2.281-0.74
	c-0.878,0-1.511,0.124-1.891,0.368c-0.368,0.246-0.554,0.54-0.554,0.87c0,0.417,0.2,0.722,0.596,0.91
	c0.399,0.197,1.809,0.533,4.227,1.011c1.613,0.34,2.82,0.857,3.629,1.551c0.795,0.698,1.198,1.569,1.198,2.621
	c0,1.382-0.576,2.508-1.724,3.392c-1.135,0.87-2.905,1.304-5.293,1.304c-2.44,0-4.242-0.46-5.41-1.384
	c-1.156-0.927-1.738-2.106-1.738-3.544H34.455z"/>
<rect x="45.521" y="0.5" class="st3" width="4.057" height="18.858"/>
<path class="st3" d="M55.602,3.749h-4.113V0.382h4.113V3.749z M51.488,5.411h4.113v13.947h-4.113V5.411z"/>
<path class="st3" d="M62.033,8.836c-0.514,0.534-0.834,1.249-0.97,2.154h6.308c-0.066-0.964-0.394-1.692-0.981-2.192
	c-0.581-0.498-1.303-0.755-2.167-0.755C63.284,8.043,62.553,8.315,62.033,8.836 M67.713,5.693c1.032,0.435,1.889,1.121,2.563,2.061
	c0.602,0.829,0.998,1.789,1.175,2.878c0.104,0.643,0.151,1.563,0.128,2.765H60.964c0.059,1.398,0.544,2.38,1.467,2.946
	c0.56,0.348,1.233,0.521,2.021,0.521c0.838,0,1.515-0.212,2.034-0.638c0.288-0.232,0.536-0.552,0.757-0.959h4.14
	c-0.104,0.829-0.584,1.666-1.437,2.518c-1.332,1.357-3.188,2.036-5.581,2.036c-1.97,0-3.712-0.568-5.222-1.713
	c-1.508-1.142-2.261-3.005-2.261-5.581c0-2.412,0.676-4.263,2.033-5.552c1.367-1.288,3.135-1.927,5.308-1.927
	C65.515,5.046,66.672,5.26,67.713,5.693"/>
<path class="st3" d="M80.271,12.208v0.431c0.039,1.46,0.218,2.49,0.527,3.086c0.324,0.586,1.004,0.882,2.054,0.882
	c1.036,0,1.716-0.325,2.048-0.973c0.196-0.381,0.299-1.032,0.299-1.947V0.5h4.385v13.128c0,1.603-0.311,2.871-0.927,3.81
	c-1.042,1.589-2.929,2.381-5.652,2.381s-4.55-0.638-5.479-1.919c-0.927-1.283-1.397-3.04-1.397-5.26v-0.431H80.271z"/>
<path class="st3" d="M101.525,15.647c0.634-0.755,0.951-1.836,0.954-3.233c0-1.401-0.32-2.474-0.954-3.225
	c-0.639-0.76-1.55-1.146-2.735-1.146c-1.188,0-2.1,0.386-2.745,1.146c-0.641,0.75-0.958,1.824-0.958,3.225
	c0,1.397,0.316,2.478,0.958,3.233c0.645,0.76,1.557,1.138,2.745,1.138C99.975,16.785,100.886,16.407,101.525,15.647 M104.77,17.666
	c-1.312,1.455-3.296,2.178-5.968,2.178c-2.667,0-4.654-0.723-5.963-2.178c-1.31-1.455-1.96-3.203-1.96-5.252
	c0-2.017,0.65-3.76,1.96-5.236c1.309-1.475,3.296-2.213,5.963-2.213c2.671,0,4.656,0.739,5.968,2.213
	c1.311,1.476,1.96,3.219,1.96,5.236C106.73,14.463,106.081,16.211,104.77,17.666"/>
<path class="st3" d="M116.204,5.092c0.056,0,0.176,0.006,0.357,0.013v3.731c-0.26-0.021-0.486-0.04-0.685-0.046
	c-0.2-0.007-0.36-0.01-0.485-0.01c-1.634,0-2.728,0.472-3.288,1.429c-0.312,0.539-0.468,1.367-0.468,2.479v6.671h-4.083V5.411h3.871
	v2.434c0.625-0.933,1.172-1.567,1.636-1.91c0.76-0.571,1.744-0.854,2.96-0.857C116.096,5.078,116.154,5.087,116.204,5.092"/>
<path class="st3" d="M125.678,5.642c0.726,0.369,1.319,0.88,1.775,1.536V0.522h4.112v18.836h-3.938v-1.932
	c-0.582,0.829-1.24,1.431-1.984,1.806c-0.737,0.373-1.662,0.562-2.757,0.562c-1.816,0-3.341-0.656-4.586-1.969
	c-1.234-1.326-1.851-3.015-1.851-5.08c0-2.382,0.609-4.253,1.825-5.616c1.226-1.364,2.854-2.048,4.896-2.051
	C124.112,5.078,124.943,5.267,125.678,5.642 M126.672,15.572c0.598-0.769,0.895-1.761,0.895-2.984c0-1.705-0.478-2.924-1.436-3.655
	c-0.589-0.445-1.274-0.668-2.053-0.668c-1.184,0-2.057,0.407-2.618,1.218c-0.548,0.8-0.823,1.8-0.823,2.996
	c0,1.285,0.28,2.316,0.84,3.094c0.568,0.771,1.432,1.152,2.573,1.152C125.202,16.724,126.072,16.343,126.672,15.572"/>
<path class="st3" d="M142.039,12.578c-0.25,0.145-0.515,0.263-0.781,0.357c-0.254,0.086-0.61,0.168-1.066,0.245l-0.912,0.155
	c-0.853,0.134-1.464,0.299-1.832,0.496c-0.629,0.335-0.939,0.852-0.939,1.551c0,0.622,0.187,1.07,0.567,1.354
	c0.389,0.275,0.858,0.409,1.406,0.409c0.874,0,1.676-0.229,2.405-0.692c0.742-0.459,1.128-1.299,1.152-2.517V12.578z
	 M139.583,10.875c0.746-0.087,1.284-0.192,1.604-0.319c0.582-0.223,0.87-0.568,0.87-1.038c0-0.569-0.223-0.962-0.67-1.18
	c-0.435-0.219-1.077-0.329-1.936-0.329c-0.955,0-1.636,0.215-2.034,0.638c-0.287,0.312-0.479,0.741-0.572,1.281h-3.912
	c0.086-1.221,0.466-2.222,1.14-3.003c1.073-1.233,2.912-1.848,5.519-1.848c1.701,0,3.21,0.304,4.529,0.909
	c1.317,0.608,1.979,1.75,1.979,3.43v6.397c0,0.447,0.008,0.983,0.027,1.612c0.031,0.48,0.111,0.803,0.238,0.973
	c0.14,0.168,0.335,0.31,0.604,0.421v0.538h-4.418c-0.119-0.281-0.209-0.546-0.253-0.795c-0.048-0.243-0.086-0.528-0.112-0.839
	c-0.562,0.542-1.206,1.008-1.933,1.393c-0.879,0.452-1.865,0.677-2.961,0.677c-1.407,0-2.57-0.358-3.492-1.075
	c-0.909-0.727-1.365-1.746-1.365-3.072c0-1.711,0.736-2.96,2.207-3.723c0.806-0.42,1.991-0.715,3.556-0.896L139.583,10.875z"/>
<path class="st3" d="M160.09,6.22c1.027,0.749,1.531,1.995,1.531,3.747v9.391h-4.148v-8.482c0-0.733-0.11-1.297-0.33-1.687
	c-0.401-0.717-1.154-1.077-2.274-1.077c-1.376,0-2.322,0.522-2.835,1.573c-0.265,0.552-0.4,1.265-0.4,2.124v7.55h-4.041V5.437h3.917
	v2.036c0.521-0.714,1.012-1.234,1.479-1.545c0.837-0.568,1.891-0.849,3.174-0.849C157.767,5.078,159.074,5.462,160.09,6.22"/>
<g>
	<path class="st0" d="M2.079,32.083H0l3.368-9.445h2.276l3.328,9.445H6.828l-0.605-1.947H2.736L2.079,32.083z M3.263,28.504H5.67
		L4.5,24.769H4.473L3.263,28.504z"/>
	<path class="st0" d="M11.816,26.097h0.026c0.342-0.553,0.855-1.197,2.091-1.197c1.54,0,2.908,1.184,2.908,3.604
		c0,1.921-0.868,3.763-2.947,3.763c-1.289,0-1.75-0.697-1.973-1.079h-0.026v3.618h-1.842v-9.721h1.763V26.097z M13.434,30.754
		c1.184,0,1.513-1.289,1.513-2.118c0-1.105-0.395-2.145-1.565-2.145c-1.263,0-1.565,1.131-1.565,2.25
		C11.816,29.78,12.263,30.754,13.434,30.754z"/>
	<path class="st0" d="M19.856,26.097h0.026c0.342-0.553,0.855-1.197,2.092-1.197c1.539,0,2.907,1.184,2.907,3.604
		c0,1.921-0.868,3.763-2.947,3.763c-1.289,0-1.75-0.697-1.973-1.079h-0.026v3.618h-1.842v-9.721h1.763V26.097z M21.474,30.754
		c1.184,0,1.513-1.289,1.513-2.118c0-1.105-0.395-2.145-1.565-2.145c-1.263,0-1.566,1.131-1.566,2.25
		C19.856,29.78,20.303,30.754,21.474,30.754z"/>
	<path class="st0" d="M31.843,30.714c0,0.829,0.184,1.013,0.407,1.092v0.276h-1.986c-0.105-0.329-0.131-0.434-0.171-0.829
		c-0.421,0.434-1.013,1.013-2.263,1.013c-1.052,0-2.131-0.592-2.131-2.039c0-1.368,0.868-2.065,2.039-2.237l1.658-0.25
		c0.29-0.039,0.645-0.158,0.645-0.552c0-0.777-0.736-0.816-1.21-0.816c-0.921,0-1.079,0.565-1.131,0.973h-1.776
		c0.21-2.144,1.697-2.447,3.13-2.447c0.987,0,2.79,0.303,2.79,2.026V30.714z M30.041,28.676c-0.184,0.145-0.487,0.263-1.25,0.381
		c-0.684,0.118-1.25,0.289-1.25,1.052c0,0.645,0.5,0.842,0.855,0.842c0.815,0,1.644-0.526,1.644-1.381V28.676z"/>
	<path class="st0" d="M33.477,25.084h1.763v1.21h0.026c0.381-0.71,0.802-1.395,1.92-1.395c0.118,0,0.237,0.014,0.355,0.026v1.868
		c-0.158-0.026-0.355-0.026-0.526-0.026c-1.434,0-1.697,0.895-1.697,1.67v3.644h-1.842V25.084z"/>
	<path class="st0" d="M44.62,30.031c-0.487,1.684-1.881,2.236-3.078,2.236c-1.974,0-3.486-0.947-3.486-3.829
		c0-0.842,0.289-3.539,3.354-3.539c1.381,0,3.289,0.658,3.289,3.854v0.329h-4.802c0.053,0.526,0.158,1.71,1.645,1.71
		c0.513,0,1.039-0.263,1.184-0.763H44.62z M42.805,27.886c-0.105-1.131-0.829-1.474-1.421-1.474c-0.868,0-1.329,0.553-1.434,1.474
		H42.805z"/>
	<path class="st0" d="M47.819,32.083h-1.842v-9.445h1.842V32.083z"/>
	<path class="st0" d="M53.386,22.637h4.17c3.184,0,3.841,2.71,3.841,4.5c0,2.025-0.802,4.946-3.92,4.946h-4.091V22.637z
		 M55.319,30.452h1.921c1.605,0,2.144-1.618,2.144-3.171c0-2.788-1.329-3.012-2.17-3.012h-1.895V30.452z"/>
	<path class="st0" d="M68.754,30.031c-0.487,1.684-1.881,2.236-3.079,2.236c-1.973,0-3.486-0.947-3.486-3.829
		c0-0.842,0.29-3.539,3.354-3.539c1.381,0,3.289,0.658,3.289,3.854v0.329h-4.802c0.053,0.526,0.158,1.71,1.645,1.71
		c0.513,0,1.04-0.263,1.184-0.763H68.754z M66.938,27.886c-0.105-1.131-0.829-1.474-1.421-1.474c-0.869,0-1.329,0.553-1.434,1.474
		H66.938z"/>
	<path class="st0" d="M74.018,27.215c-0.079-0.447-0.237-0.921-1.237-0.921c-1,0-1.131,0.381-1.131,0.684
		c0,1.105,4.381,0.302,4.381,2.881c0,2.039-1.973,2.407-3.065,2.407c-1.592,0-3.315-0.553-3.368-2.421h1.895
		c0,0.592,0.369,1.026,1.526,1.026c0.947,0,1.17-0.461,1.17-0.724c0-1.171-4.341-0.289-4.341-2.907c0-1.026,0.645-2.342,2.829-2.342
		c1.368,0,3,0.342,3.144,2.315H74.018z"/>
	<path class="st0" d="M79.269,24.255h-1.842v-1.71h1.842V24.255z M79.269,25.084v6.998h-1.842v-6.998H79.269z"/>
	<path class="st0" d="M87.452,25.084v6.63c0,1.21-0.092,3.223-3.539,3.223c-1.447,0-2.973-0.618-3.052-2.105h2
		c0.079,0.355,0.223,0.71,1.289,0.71c0.986,0,1.46-0.474,1.46-1.605v-0.842l-0.026-0.026c-0.303,0.539-0.764,1.052-1.869,1.052
		c-1.684,0-3.012-1.171-3.012-3.618c0-2.42,1.368-3.604,2.907-3.604c1.302,0,1.828,0.763,2.052,1.224h0.026v-1.039H87.452z
		 M84.058,30.57c1.25,0,1.565-1.065,1.565-2.026c0-1.131-0.552-2.052-1.578-2.052c-0.684,0-1.447,0.5-1.447,2.131
		C82.598,29.518,82.967,30.57,84.058,30.57z"/>
	<path class="st0" d="M95.401,32.083h-1.842v-4.249c0-0.514-0.026-1.382-1.197-1.382c-0.815,0-1.447,0.553-1.447,1.618v4.012h-1.842
		v-6.998h1.763v1.026h0.026c0.25-0.421,0.776-1.21,2.104-1.21c1.368,0,2.434,0.803,2.434,2.342V32.083z"/>
	<path class="st0" d="M109.138,32.083h-2.223l-0.645-0.803c-0.552,0.553-1.276,1.053-2.697,1.053c-1.802,0-2.947-1.276-2.947-2.684
		c0-0.908,0.25-1.802,1.815-2.75l0.197-0.118c-0.395-0.447-0.855-1.158-0.855-1.973c0-1.289,1.039-2.171,2.513-2.171
		c1.039,0,2.315,0.671,2.315,2.184c0,1.329-1.184,2.026-1.565,2.25l1.342,1.658c0.236-0.368,0.421-0.829,0.486-1.552h1.631
		c-0.118,1.276-0.447,2.013-1.079,2.841L109.138,32.083z M103.586,27.952c-0.776,0.565-1.118,0.829-1.118,1.579
		c0,0.368,0.29,1.25,1.395,1.25c0.605,0,1.144-0.369,1.46-0.658L103.586,27.952z M104.231,24.032c-0.408,0-0.763,0.263-0.763,0.763
		c0,0.316,0.237,0.697,0.684,1.184c0.5-0.315,0.869-0.684,0.869-1.17C105.021,24.282,104.679,24.032,104.231,24.032z"/>
	<path class="st0" d="M123.139,32.083h-1.841V24.19h-0.026l-1.764,7.893h-1.934l-1.723-7.893h-0.026v7.893h-1.842v-9.445h2.881
		l1.71,7.446h0.026l1.684-7.446h2.854V32.083z"/>
	<path class="st0" d="M127.023,32.083h-1.842V26.4h-1.014v-1.315h1.014v-0.566c0-1.446,0.789-1.999,2.052-1.999
		c0.54,0,0.789,0.013,0.947,0.026v1.486h-0.513c-0.632,0-0.645,0.197-0.645,0.776v0.276h1.197V26.4h-1.197V32.083z"/>
	<path class="st0" d="M135.693,25.084v6.63c0,1.21-0.093,3.223-3.538,3.223c-1.448,0-2.974-0.618-3.053-2.105h1.999
		c0.079,0.355,0.224,0.71,1.29,0.71c0.986,0,1.459-0.474,1.459-1.605v-0.842l-0.025-0.026c-0.303,0.539-0.763,1.052-1.868,1.052
		c-1.684,0-3.013-1.171-3.013-3.618c0-2.42,1.368-3.604,2.908-3.604c1.301,0,1.828,0.763,2.051,1.224h0.027v-1.039H135.693z
		 M132.299,30.57c1.25,0,1.565-1.065,1.565-2.026c0-1.131-0.553-2.052-1.578-2.052c-0.685,0-1.447,0.5-1.447,2.131
		C130.839,29.518,131.208,30.57,132.299,30.57z"/>
	<path class="st0" d="M147.142,25.729c-0.158-0.566-0.461-1.632-2.092-1.632c-0.946,0-2.342,0.632-2.342,3.302
		c0,1.697,0.671,3.223,2.342,3.223c1.092,0,1.855-0.618,2.092-1.776h1.973c-0.395,2.052-1.736,3.486-4.104,3.486
		c-2.512,0-4.314-1.697-4.314-4.959c0-3.302,1.908-4.985,4.342-4.985c2.828,0,3.973,1.947,4.077,3.341H147.142z"/>
	<path class="st0" d="M153.643,32.267c-1.881,0-3.578-1.158-3.578-3.684c0-2.526,1.697-3.684,3.578-3.684
		c1.882,0,3.578,1.158,3.578,3.684C157.221,31.109,155.524,32.267,153.643,32.267z M153.643,26.452
		c-1.421,0-1.684,1.237-1.684,2.131s0.263,2.131,1.684,2.131s1.684-1.236,1.684-2.131S155.063,26.452,153.643,26.452z"/>
	<path class="st0" d="M160.473,32.083h-1.974v-1.92h1.974V32.083z"/>
</g>
<path class="st2" d="M202.69,5.772c2.703-0.274,5.555-0.484,8.514-0.617v-0.36c0-0.152,0-0.292,0-0.42
	c-1.609-0.054-3.315-0.088-4.984-0.088c-1.185,0-2.363,0.014-3.529,0.041c-0.003,0.142,0,0.298,0,0.468V5.772z M236.821,22.099
	c0.271,0.338,0.496,0.705,0.668,1.094c4.063-0.518,7.657-1.171,10.458-2.004C244.521,21.593,240.783,21.901,236.821,22.099z
	 M223.851,22.33c-4.2-0.05-8.475-0.211-12.646-0.468c-2.906-0.181-5.765-0.405-8.514-0.673c-4.617-0.451-8.926-1.017-12.646-1.682
	c-7.802-1.391-13.007-3.204-13.007-5.232c0-2.373,4.991-4.779,13.007-6.548V5.146c-15.021,1.676-25.808,5.65-25.929,10.619
	c-0.08,3.221,4.07,5.877,12.716,7.527v-0.769c0-0.814,0.103-1.627,1.29-1.627c1.085,0,1.703,0.255,1.961,1.197
	c0.173,0.636,0.381,1.247,0.622,1.828c2.759,0.379,5.873,0.675,9.34,0.879c3.785,0.222,7.998,0.334,12.646,0.323
	c2.719-0.005,5.582-0.053,8.602-0.146c0.938-0.029,1.888-0.062,2.858-0.099c3.234-0.125,6.5-0.277,9.7-0.473
	c0.799-0.05,1.59-0.101,2.38-0.154c0.036-0.683,0.267-1.331,0.642-1.904c-0.061,0-0.123,0-0.188,0
	C225.745,22.348,224.799,22.342,223.851,22.33z"/>
<path class="st1" d="M204.444,29.543c-1.807-0.47-1.754-0.729-1.754-2.312v-2.108c-4.647,0.011-8.86-0.101-12.646-0.323v7.227
	h13.626c0.208,0,1.91-0.089,1.91-1.33C205.581,30.1,205.115,29.716,204.444,29.543z M180.705,23.921
	c-0.241-0.581-0.449-1.192-0.622-1.828c-0.258-0.942-0.876-1.197-1.961-1.197c-1.188,0-1.29,0.812-1.29,1.627v9.505h10.891v-2.484
	C184.211,29.147,181.972,26.968,180.705,23.921z M203.671,0h-14.606c-0.208,0-1.91,0.085-1.91,1.328
	c0,0.599,0.464,0.984,1.136,1.155c1.807,0.471,1.755,0.729,1.755,2.312v14.711c3.72,0.665,8.028,1.231,12.646,1.682V4.795
	c0-0.17-0.003-0.326,0-0.468c0.012-1.173,0.146-1.424,1.754-1.844c0.671-0.171,1.137-0.557,1.137-1.155
	C205.581,0.085,203.879,0,203.671,0z M237.489,23.193c-0.172-0.389-0.396-0.755-0.668-1.094c-1.078-1.341-2.878-2.232-4.976-2.232
	c-2.093,0-4.011,1.009-4.974,2.481c-0.375,0.573-0.605,1.221-0.642,1.904c-0.005,0.065-0.007,0.131-0.007,0.196
	c0,1.97,1.394,3.553,3.563,4.281c0.1,0.043,0.513,0.214,0.513,0.344c0,0.426-1.65,0.855-2.114,0.941v2.527
	c4.851-0.43,9.703-3.083,9.703-7.493C237.889,24.397,237.747,23.771,237.489,23.193z M211.204,5.155v16.707
	c4.172,0.257,8.446,0.418,12.646,0.468V4.795c0-1.583-0.052-1.841,1.752-2.312c0.672-0.171,1.135-0.557,1.135-1.155
	c0-1.243-1.699-1.328-1.907-1.328h-14.606c-0.207,0-1.91,0.085-1.91,1.328c0,0.599,0.465,0.984,1.137,1.155
	c1.632,0.427,1.745,0.677,1.754,1.892 M223.851,26.16v-1.754c-3.2,0.195-6.466,0.347-9.7,0.473c-0.971,0.037-1.92,0.07-2.858,0.099
	c0.235,2.016,1.02,3.794,3.062,5.251c2.475,1.755,6.501,2.442,9.7,2.442l1.809-0.044V30.1
	C223.851,29.33,223.851,27.658,223.851,26.16z"/>
</svg>
