<?xml version="1.0" encoding="utf-8"?>
<!-- Generator: Adobe Illustrator 16.0.4, SVG Export Plug-In . SVG Version: 6.00 Build 0)  -->
<!DOCTYPE svg PUBLIC "-//W3C//DTD SVG 1.1//EN" "http://www.w3.org/Graphics/SVG/1.1/DTD/svg11.dtd">
<svg version="1.1" id="Layer_1" xmlns="http://www.w3.org/2000/svg" xmlns:xlink="http://www.w3.org/1999/xlink" x="0px" y="0px"
	 width="278.271px" height="31.027px" viewBox="20.582 20.552 278.271 31.027"
	 enable-background="new 20.582 20.552 278.271 31.027" xml:space="preserve">
<g>
	<path d="M39.172,50.787V38.477H27.693v12.312h-7.111V21.342h7.111v11.146h11.479V21.342h7.112v29.445H39.172z"/>
	<path d="M83.048,35.94c0,2.33-0.402,4.457-1.206,6.384c-0.804,1.927-1.92,3.574-3.348,4.947c-1.429,1.373-3.127,2.435-5.095,3.184
		c-1.969,0.748-4.104,1.122-6.404,1.122c-2.302,0-4.43-0.374-6.383-1.122c-1.956-0.749-3.647-1.811-5.075-3.184
		c-1.429-1.373-2.544-3.021-3.349-4.947c-0.805-1.928-1.206-4.057-1.206-6.384c0-2.356,0.401-4.484,1.206-6.384
		c0.805-1.899,1.92-3.514,3.349-4.845c1.428-1.331,3.119-2.356,5.075-3.078c1.953-0.721,4.081-1.081,6.383-1.081
		c2.301,0,4.436,0.36,6.404,1.081c1.968,0.722,3.666,1.747,5.095,3.078c1.428,1.331,2.544,2.946,3.348,4.845
		C82.646,31.456,83.048,33.583,83.048,35.94z M75.438,35.94c0-1.275-0.209-2.467-0.624-3.577c-0.416-1.108-0.992-2.059-1.727-2.849
		s-1.622-1.414-2.66-1.872c-1.039-0.458-2.184-0.686-3.432-0.686s-2.385,0.229-3.41,0.686c-1.026,0.458-1.913,1.082-2.662,1.872
		s-1.324,1.74-1.725,2.849c-0.403,1.11-0.604,2.302-0.604,3.577c0,1.332,0.208,2.557,0.624,3.68s0.991,2.087,1.726,2.891
		c0.735,0.806,1.615,1.438,2.642,1.894c1.025,0.457,2.162,0.687,3.41,0.687s2.384-0.229,3.41-0.687
		c1.025-0.456,1.913-1.088,2.661-1.894c0.748-0.804,1.331-1.768,1.747-2.891C75.229,38.497,75.438,37.271,75.438,35.94z"/>
	<path d="M106.463,50.787L94.61,31.531h-0.126l0.167,19.256h-6.904V21.342h8.11l11.812,19.215h0.125l-0.167-19.215h6.904v29.445
		H106.463z"/>
	<path d="M120.604,50.787V21.342h19.795v5.989h-12.933v5.573h12.228v5.7h-12.228v6.112h13.684v6.071H120.604z"/>
	<path d="M160.152,38.311v12.479h-7.11V38.311l-11.063-16.969h8.609l6.281,10.896l6.279-10.896h8.315L160.152,38.311z"/>
	<path d="M193.425,50.268c-1.913,0.875-4.116,1.312-6.612,1.312c-2.271,0-4.373-0.374-6.301-1.122
		c-1.928-0.749-3.599-1.811-5.012-3.184c-1.414-1.373-2.523-3.016-3.327-4.929c-0.805-1.913-1.207-4.02-1.207-6.322
		c0-2.356,0.41-4.492,1.228-6.405c0.818-1.913,1.949-3.542,3.393-4.886c1.439-1.345,3.133-2.377,5.072-3.099
		c1.939-0.721,4.033-1.081,6.279-1.081c2.08,0,4.123,0.368,6.136,1.102c2.01,0.735,3.639,1.809,4.887,3.224l-4.823,4.824
		c-0.664-0.915-1.537-1.594-2.619-2.038c-1.082-0.443-2.19-0.665-3.328-0.665c-1.246,0-2.393,0.229-3.432,0.686
		c-1.041,0.458-1.935,1.089-2.683,1.893c-0.748,0.804-1.332,1.754-1.747,2.849c-0.415,1.096-0.623,2.295-0.623,3.598
		c0,1.333,0.208,2.551,0.623,3.661c0.415,1.11,0.99,2.061,1.729,2.851c0.733,0.79,1.612,1.405,2.641,1.85
		c1.025,0.444,2.146,0.666,3.367,0.666c1.414,0,2.646-0.276,3.701-0.831s1.898-1.273,2.539-2.162l4.946,4.657
		C196.945,48.209,195.338,49.395,193.425,50.268z"/>
	<path d="M231.479,35.94c0,2.33-0.4,4.457-1.205,6.384c-0.806,1.928-1.922,3.574-3.35,4.947s-3.126,2.435-5.095,3.184
		c-1.97,0.748-4.103,1.122-6.404,1.122c-2.301,0-4.429-0.374-6.385-1.122c-1.953-0.749-3.646-1.811-5.073-3.184
		c-1.427-1.373-2.543-3.021-3.348-4.947c-0.805-1.928-1.206-4.057-1.206-6.384c0-2.356,0.401-4.484,1.206-6.384
		c0.805-1.899,1.92-3.514,3.348-4.845s3.12-2.356,5.073-3.078c1.956-0.721,4.083-1.081,6.385-1.081s4.437,0.36,6.404,1.081
		c1.969,0.722,3.667,1.747,5.095,3.078s2.544,2.946,3.35,4.845C231.077,31.456,231.479,33.583,231.479,35.94z M223.868,35.94
		c0-1.275-0.208-2.467-0.623-3.577c-0.417-1.108-0.992-2.059-1.728-2.849c-0.734-0.79-1.621-1.414-2.66-1.872
		c-1.041-0.458-2.185-0.686-3.434-0.686c-1.248,0-2.385,0.229-3.41,0.686c-1.023,0.458-1.912,1.082-2.66,1.872
		s-1.324,1.74-1.729,2.849c-0.398,1.11-0.604,2.302-0.604,3.577c0,1.332,0.209,2.557,0.623,3.68
		c0.416,1.123,0.992,2.087,1.729,2.891c0.732,0.806,1.613,1.438,2.641,1.894c1.025,0.457,2.162,0.687,3.41,0.687
		c1.249,0,2.385-0.229,3.41-0.687c1.023-0.456,1.913-1.088,2.662-1.894c0.748-0.804,1.33-1.768,1.747-2.891
		S223.868,37.271,223.868,35.94z"/>
	<path d="M262.879,50.787l0.166-20.836h-0.125l-7.65,20.836h-4.992l-7.442-20.836h-0.125l0.166,20.836h-6.694V21.342h10.117
		l6.705,18.883h0.166l6.413-18.883h10.285v29.445H262.879z"/>
	<path d="M298.854,42.22c0,1.608-0.317,2.962-0.957,4.056c-0.638,1.097-1.481,1.977-2.537,2.643
		c-1.053,0.666-2.252,1.145-3.598,1.436c-1.345,0.291-2.724,0.438-4.138,0.438h-11.728V21.342h11.728
		c1.138,0,2.301,0.119,3.493,0.354c1.191,0.236,2.273,0.638,3.244,1.206c0.972,0.569,1.761,1.338,2.371,2.309
		c0.607,0.971,0.914,2.204,0.914,3.701c0,1.636-0.443,2.988-1.332,4.055c-0.887,1.067-2.051,1.837-3.491,2.308v0.083
		c0.831,0.139,1.612,0.395,2.35,0.769c0.734,0.375,1.372,0.854,1.912,1.436c0.542,0.582,0.972,1.263,1.29,2.037
		C298.693,40.376,298.854,41.249,298.854,42.22z M290.786,29.868c0-0.998-0.384-1.726-1.146-2.184
		c-0.764-0.457-1.894-0.686-3.391-0.686h-3.493v6.072h3.825c1.332,0,2.361-0.27,3.1-0.811
		C290.417,31.718,290.786,30.922,290.786,29.868z M291.741,41.555c0-1.22-0.458-2.063-1.372-2.537
		c-0.915-0.471-2.135-0.707-3.659-0.707h-3.951v6.737h3.991c0.557,0,1.13-0.048,1.727-0.146c0.598-0.098,1.137-0.271,1.623-0.521
		c0.484-0.249,0.879-0.602,1.186-1.061C291.589,42.864,291.741,42.275,291.741,41.555z"/>
</g>
</svg>
