<?xml version="1.0" encoding="utf-8"?>
<!-- Generator: Adobe Illustrator 16.0.4, SVG Export Plug-In . SVG Version: 6.00 Build 0)  -->
<!DOCTYPE svg PUBLIC "-//W3C//DTD SVG 1.1//EN" "http://www.w3.org/Graphics/SVG/1.1/DTD/svg11.dtd">
<svg version="1.1" id="Layer_1" xmlns="http://www.w3.org/2000/svg" xmlns:xlink="http://www.w3.org/1999/xlink" x="0px" y="0px"
	 width="300px" height="72.129px" viewBox="0 0 300 72.129" enable-background="new 0 0 300 72.129" xml:space="preserve">
<polygon fill="#EFC100" points="32.216,71.909 1.146,54.033 1.201,18.19 32.325,0.22 63.395,18.094 63.34,53.939 "/>
<g>
	<path fill="#FFFFFF" d="M39.172,50.787V38.477H27.693v12.311h-7.111V21.342h7.111v11.146h11.479V21.342h7.112v29.445H39.172z"/>
	<path fill="#FFFFFF" d="M83.048,35.94c0,2.329-0.402,4.457-1.206,6.384s-1.92,3.575-3.348,4.948
		c-1.429,1.373-3.127,2.434-5.095,3.183c-1.969,0.748-4.104,1.122-6.404,1.122c-2.302,0-4.43-0.374-6.383-1.122
		c-1.956-0.749-3.647-1.81-5.075-3.183c-1.429-1.373-2.544-3.021-3.349-4.948s-1.206-4.056-1.206-6.384
		c0-2.356,0.401-4.484,1.206-6.384c0.805-1.899,1.92-3.514,3.349-4.845c1.428-1.331,3.119-2.356,5.075-3.078
		c1.953-0.721,4.081-1.081,6.383-1.081c2.301,0,4.436,0.36,6.404,1.081c1.968,0.722,3.666,1.747,5.095,3.078
		c1.428,1.331,2.544,2.946,3.348,4.845C82.646,31.456,83.048,33.583,83.048,35.94z M75.438,35.94c0-1.275-0.209-2.467-0.624-3.577
		c-0.416-1.108-0.992-2.059-1.727-2.849s-1.622-1.414-2.66-1.872c-1.039-0.458-2.184-0.686-3.432-0.686s-2.385,0.229-3.41,0.686
		c-1.026,0.458-1.913,1.082-2.662,1.872s-1.324,1.74-1.725,2.849c-0.403,1.11-0.604,2.302-0.604,3.577
		c0,1.331,0.208,2.557,0.624,3.68s0.991,2.087,1.726,2.891c0.735,0.805,1.615,1.436,2.642,1.893c1.025,0.457,2.162,0.686,3.41,0.686
		s2.384-0.229,3.41-0.686c1.025-0.457,1.913-1.088,2.661-1.893c0.748-0.804,1.331-1.768,1.747-2.891
		C75.229,38.497,75.438,37.271,75.438,35.94z"/>
	<path fill="#FFFFFF" d="M106.463,50.787L94.61,31.531h-0.126l0.167,19.256h-6.904V21.342h8.11l11.812,19.214h0.125l-0.167-19.214
		h6.904v29.445H106.463z"/>
	<path fill="#FFFFFF" d="M120.604,50.787V21.342h19.795v5.989h-12.933v5.573h12.228v5.699h-12.228v6.113h13.684v6.071H120.604z"/>
	<path fill="#FFFFFF" d="M160.153,38.311v12.477h-7.111V38.311l-11.063-16.969h8.609l6.281,10.896l6.279-10.896h8.317
		L160.153,38.311z"/>
	<path fill="#FFFFFF" d="M193.425,50.267c-1.913,0.875-4.117,1.311-6.612,1.311c-2.273,0-4.374-0.374-6.302-1.122
		c-1.927-0.749-3.598-1.81-5.011-3.183c-1.414-1.373-2.523-3.015-3.327-4.928c-0.805-1.913-1.207-4.02-1.207-6.322
		c0-2.356,0.41-4.492,1.228-6.405c0.818-1.913,1.948-3.542,3.391-4.886c1.44-1.345,3.133-2.377,5.072-3.099
		c1.941-0.721,4.035-1.081,6.28-1.081c2.08,0,4.124,0.368,6.135,1.102c2.01,0.735,3.639,1.809,4.887,3.224l-4.824,4.824
		c-0.665-0.915-1.538-1.594-2.62-2.038c-1.082-0.443-2.19-0.665-3.327-0.665c-1.247,0-2.392,0.229-3.431,0.686
		c-1.041,0.458-1.935,1.089-2.683,1.893c-0.748,0.804-1.332,1.754-1.747,2.849c-0.415,1.096-0.623,2.295-0.623,3.598
		c0,1.332,0.208,2.551,0.623,3.66c0.415,1.11,0.992,2.06,1.727,2.85s1.614,1.407,2.641,1.85c1.025,0.444,2.147,0.666,3.368,0.666
		c1.414,0,2.647-0.277,3.701-0.832c1.054-0.554,1.899-1.274,2.538-2.162l4.948,4.658C196.945,48.209,195.338,49.394,193.425,50.267z
		"/>
	<path fill="#FFFFFF" d="M231.479,35.94c0,2.329-0.402,4.457-1.206,6.384c-0.805,1.928-1.921,3.575-3.349,4.948
		s-3.126,2.434-5.095,3.183c-1.969,0.748-4.103,1.122-6.404,1.122s-4.429-0.374-6.385-1.122c-1.953-0.749-3.646-1.81-5.073-3.183
		s-2.543-3.021-3.348-4.948s-1.206-4.056-1.206-6.384c0-2.356,0.401-4.484,1.206-6.384c0.805-1.899,1.92-3.514,3.348-4.845
		c1.428-1.331,3.12-2.356,5.073-3.078c1.956-0.721,4.083-1.081,6.385-1.081s4.436,0.36,6.404,1.081
		c1.969,0.722,3.667,1.747,5.095,3.078c1.428,1.331,2.544,2.946,3.349,4.845C231.077,31.456,231.479,33.583,231.479,35.94z
		 M223.868,35.94c0-1.275-0.208-2.467-0.623-3.577c-0.417-1.108-0.992-2.059-1.727-2.849c-0.735-0.79-1.622-1.414-2.661-1.872
		c-1.041-0.458-2.183-0.686-3.432-0.686c-1.248,0-2.385,0.229-3.411,0.686c-1.024,0.458-1.912,1.082-2.661,1.872
		c-0.748,0.79-1.324,1.74-1.727,2.849c-0.4,1.11-0.603,2.302-0.603,3.577c0,1.331,0.209,2.557,0.624,3.68
		c0.416,1.123,0.992,2.087,1.727,2.891c0.733,0.805,1.615,1.436,2.64,1.893c1.026,0.457,2.163,0.686,3.411,0.686
		c1.249,0,2.384-0.229,3.41-0.686c1.025-0.457,1.913-1.088,2.662-1.893c0.748-0.804,1.33-1.768,1.747-2.891
		C223.66,38.497,223.868,37.271,223.868,35.94z"/>
	<path fill="#FFFFFF" d="M262.879,50.787l0.166-20.836h-0.125l-7.651,20.836h-4.991l-7.444-20.836h-0.125l0.166,20.836h-6.695
		V21.342h10.118l6.705,18.882h0.166l6.413-18.882h10.285v29.445H262.879z"/>
	<path fill="#FFFFFF" d="M298.854,42.22c0,1.608-0.319,2.961-0.957,4.055c-0.638,1.096-1.483,1.976-2.537,2.642
		s-2.252,1.144-3.598,1.435c-1.345,0.291-2.724,0.437-4.138,0.437h-11.728V21.342h11.728c1.137,0,2.301,0.119,3.493,0.354
		c1.192,0.236,2.273,0.638,3.244,1.206c0.972,0.569,1.761,1.338,2.371,2.309c0.609,0.971,0.915,2.204,0.915,3.701
		c0,1.636-0.444,2.988-1.332,4.055c-0.887,1.067-2.052,1.837-3.492,2.308v0.083c0.831,0.139,1.613,0.395,2.35,0.769
		c0.734,0.375,1.372,0.853,1.912,1.435c0.542,0.583,0.971,1.262,1.29,2.038C298.693,40.376,298.854,41.249,298.854,42.22z
		 M290.786,29.868c0-0.998-0.383-1.726-1.145-2.184c-0.763-0.457-1.893-0.686-3.39-0.686h-3.493v6.072h3.825
		c1.332,0,2.363-0.27,3.099-0.811C290.417,31.718,290.786,30.922,290.786,29.868z M291.741,41.555c0-1.22-0.458-2.065-1.372-2.537
		c-0.915-0.471-2.135-0.707-3.659-0.707h-3.951v6.737h3.991c0.556,0,1.13-0.048,1.727-0.146c0.596-0.098,1.137-0.271,1.622-0.521
		c0.485-0.249,0.88-0.602,1.185-1.06C291.589,42.864,291.741,42.275,291.741,41.555z"/>
</g>
</svg>
